<?xml version="1.0" encoding="UTF-8"?>
<svg xmlns="http://www.w3.org/2000/svg" xmlns:xlink="http://www.w3.org/1999/xlink" width="1000pt" height="600pt" viewBox="0 0 1000 600" version="1.1">
<g id="surface63">
<rect x="0" y="0" width="1000" height="600" style="fill:rgb(0%,0%,0%);fill-opacity:1;stroke:none;"/>
<path style="fill-rule:nonzero;fill:rgb(43.921569%,50.196078%,56.470588%);fill-opacity:1;stroke-width:1;stroke-linecap:butt;stroke-linejoin:miter;stroke:rgb(43.921569%,50.196078%,56.470588%);stroke-opacity:1;stroke-miterlimit:10;" d="M 772.726563 455.453125 L 781.109375 455.179688 L 789.457031 454.359375 L 797.734375 452.992188 L 805.902344 451.085938 L 813.929688 448.652344 L 821.78125 445.699219 L 829.421875 442.234375 L 836.816406 438.28125 L 843.941406 433.851563 L 850.757813 428.964844 L 857.242188 423.644531 L 863.367188 417.910156 L 869.097656 411.789063 L 874.421875 405.304688 L 879.304688 398.488281 L 883.734375 391.363281 L 887.691406 383.964844 L 891.152344 376.324219 L 894.105469 368.476563 L 896.542969 360.449219 L 898.445313 352.28125 L 899.8125 344.003906 L 900.632813 335.65625 L 900.910156 327.273438 L 900.910156 272.726563 L 950 272.726563 L 950 327.273438 L 949.621094 338.867188 L 948.484375 350.410156 L 946.59375 361.855469 L 943.960938 373.152344 L 940.59375 384.253906 L 936.507813 395.113281 L 931.71875 405.679688 L 926.25 415.910156 L 920.125 425.761719 L 913.367188 435.191406 L 906.007813 444.15625 L 898.078125 452.625 L 889.609375 460.554688 L 880.644531 467.914063 L 871.214844 474.667969 L 861.363281 480.796875 L 851.132813 486.265625 L 840.566406 491.050781 L 829.710938 495.136719 L 818.609375 498.503906 L 807.3125 501.140625 L 795.867188 503.027344 L 784.320313 504.164063 L 772.726563 504.546875 Z M 772.726563 455.453125 "/>
<path style="fill-rule:nonzero;fill:rgb(43.921569%,50.196078%,56.470588%);fill-opacity:1;stroke-width:1;stroke-linecap:butt;stroke-linejoin:miter;stroke:rgb(43.921569%,50.196078%,56.470588%);stroke-opacity:1;stroke-miterlimit:10;" d="M 900.910156 272.726563 L 900.632813 264.34375 L 899.8125 255.996094 L 898.445313 247.71875 L 896.542969 239.550781 L 894.105469 231.523438 L 891.152344 223.675781 L 887.691406 216.035156 L 883.734375 208.636719 L 879.304688 201.511719 L 874.421875 194.695313 L 869.097656 188.210938 L 863.367188 182.089844 L 857.242188 176.355469 L 850.757813 171.035156 L 843.941406 166.148438 L 836.816406 161.71875 L 829.421875 157.765625 L 821.78125 154.300781 L 813.929688 151.347656 L 805.902344 148.914063 L 797.734375 147.007813 L 789.457031 145.640625 L 781.109375 144.820313 L 772.726563 144.546875 L 772.726563 95.453125 L 784.320313 95.835938 L 795.867188 96.972656 L 807.3125 98.859375 L 818.609375 101.496094 L 829.710938 104.863281 L 840.566406 108.949219 L 851.132813 113.734375 L 861.363281 119.203125 L 871.214844 125.332031 L 880.644531 132.085938 L 889.609375 139.445313 L 898.078125 147.375 L 906.007813 155.84375 L 913.367188 164.808594 L 920.125 174.238281 L 926.25 184.089844 L 931.71875 194.320313 L 936.507813 204.886719 L 940.59375 215.746094 L 943.960938 226.847656 L 946.59375 238.144531 L 948.484375 249.589844 L 949.621094 261.132813 L 950 272.726563 Z M 900.910156 272.726563 "/>
<path style="fill-rule:nonzero;fill:rgb(43.921569%,50.196078%,56.470588%);fill-opacity:1;stroke-width:1;stroke-linecap:butt;stroke-linejoin:miter;stroke:rgb(43.921569%,50.196078%,56.470588%);stroke-opacity:1;stroke-miterlimit:10;" d="M 772.726563 144.546875 L 227.273438 144.546875 L 227.273438 95.453125 L 772.726563 95.453125 Z M 772.726563 144.546875 "/>
<path style="fill-rule:nonzero;fill:rgb(43.921569%,50.196078%,56.470588%);fill-opacity:1;stroke-width:1;stroke-linecap:butt;stroke-linejoin:miter;stroke:rgb(43.921569%,50.196078%,56.470588%);stroke-opacity:1;stroke-miterlimit:10;" d="M 227.273438 144.546875 L 218.890625 144.820313 L 210.542969 145.640625 L 202.265625 147.007813 L 194.097656 148.914063 L 186.070313 151.347656 L 178.21875 154.300781 L 170.578125 157.765625 L 163.183594 161.71875 L 156.058594 166.148438 L 149.242188 171.035156 L 142.757813 176.355469 L 136.632813 182.089844 L 130.902344 188.210938 L 125.578125 194.695313 L 120.695313 201.511719 L 116.265625 208.636719 L 112.308594 216.035156 L 108.847656 223.675781 L 105.894531 231.523438 L 103.457031 239.550781 L 101.554688 247.71875 L 100.1875 255.996094 L 99.367188 264.34375 L 99.089844 272.726563 L 99.089844 327.273438 L 50 327.273438 L 50 272.726563 L 50.378906 261.132813 L 51.515625 249.589844 L 53.40625 238.144531 L 56.039063 226.847656 L 59.40625 215.746094 L 63.492188 204.886719 L 68.28125 194.320313 L 73.75 184.089844 L 79.875 174.238281 L 86.632813 164.808594 L 93.992188 155.84375 L 101.921875 147.375 L 110.390625 139.445313 L 119.355469 132.085938 L 128.785156 125.332031 L 138.636719 119.203125 L 148.867188 113.734375 L 159.433594 108.949219 L 170.289063 104.863281 L 181.390625 101.496094 L 192.6875 98.859375 L 204.132813 96.972656 L 215.679688 95.835938 L 227.273438 95.453125 Z M 227.273438 144.546875 "/>
<path style="fill-rule:nonzero;fill:rgb(43.921569%,50.196078%,56.470588%);fill-opacity:1;stroke-width:1;stroke-linecap:butt;stroke-linejoin:miter;stroke:rgb(43.921569%,50.196078%,56.470588%);stroke-opacity:1;stroke-miterlimit:10;" d="M 99.089844 327.273438 L 99.367188 335.65625 L 100.1875 344.003906 L 101.554688 352.28125 L 103.457031 360.449219 L 105.894531 368.476563 L 108.847656 376.324219 L 112.308594 383.964844 L 116.265625 391.363281 L 120.695313 398.488281 L 125.578125 405.304688 L 130.902344 411.789063 L 136.632813 417.910156 L 142.757813 423.644531 L 149.242188 428.964844 L 156.058594 433.851563 L 163.183594 438.28125 L 170.578125 442.234375 L 178.21875 445.699219 L 186.070313 448.652344 L 194.097656 451.085938 L 202.265625 452.992188 L 210.542969 454.359375 L 218.890625 455.179688 L 227.273438 455.453125 L 227.273438 504.546875 L 215.679688 504.164063 L 204.132813 503.027344 L 192.6875 501.140625 L 181.390625 498.503906 L 170.289063 495.136719 L 159.433594 491.050781 L 148.867188 486.265625 L 138.636719 480.796875 L 128.785156 474.667969 L 119.355469 467.914063 L 110.390625 460.554688 L 101.921875 452.625 L 93.992188 444.15625 L 86.632813 435.191406 L 79.875 425.761719 L 73.75 415.910156 L 68.28125 405.679688 L 63.492188 395.113281 L 59.40625 384.253906 L 56.039063 373.152344 L 53.40625 361.855469 L 51.515625 350.410156 L 50.378906 338.867188 L 50 327.273438 Z M 99.089844 327.273438 "/>
<path style="fill-rule:nonzero;fill:rgb(43.921569%,50.196078%,56.470588%);fill-opacity:1;stroke-width:1;stroke-linecap:butt;stroke-linejoin:miter;stroke:rgb(43.921569%,50.196078%,56.470588%);stroke-opacity:1;stroke-miterlimit:10;" d="M 227.273438 455.453125 L 772.726563 455.453125 L 772.726563 504.546875 L 227.273438 504.546875 Z M 227.273438 455.453125 "/>
<path style="fill:none;stroke-width:0.818182;stroke-linecap:round;stroke-linejoin:miter;stroke:rgb(87.45098%,87.45098%,87.45098%);stroke-opacity:1;stroke-dasharray:4.963636,14.945455;stroke-miterlimit:10;" d="M 772.726563 488.183594 L 783.25 487.835938 L 793.730469 486.804688 L 804.117188 485.089844 L 814.375 482.699219 L 824.449219 479.640625 L 834.304688 475.933594 L 843.894531 471.585938 L 853.183594 466.625 L 862.125 461.0625 L 870.683594 454.929688 L 878.820313 448.25 L 886.507813 441.050781 L 893.707031 433.367188 L 900.386719 425.226563 L 906.519531 416.667969 L 912.078125 407.726563 L 917.042969 398.441406 L 921.386719 388.851563 L 925.097656 378.996094 L 928.152344 368.917969 L 930.542969 358.664063 L 932.257813 348.277344 L 933.292969 337.796875 L 933.636719 327.273438 L 933.636719 272.726563 "/>
<path style="fill:none;stroke-width:0.818182;stroke-linecap:round;stroke-linejoin:miter;stroke:rgb(87.45098%,87.45098%,87.45098%);stroke-opacity:1;stroke-miterlimit:10;" d="M 772.726563 504.546875 L 784.320313 504.164063 L 795.867188 503.027344 L 807.3125 501.140625 L 818.609375 498.503906 L 829.710938 495.136719 L 840.566406 491.050781 L 851.132813 486.265625 L 861.363281 480.796875 L 871.214844 474.667969 L 880.644531 467.914063 L 889.609375 460.554688 L 898.078125 452.625 L 906.007813 444.15625 L 913.367188 435.191406 L 920.125 425.761719 L 926.25 415.910156 L 931.71875 405.679688 L 936.507813 395.113281 L 940.59375 384.253906 L 943.960938 373.152344 L 946.59375 361.855469 L 948.484375 350.410156 L 949.621094 338.867188 L 950 327.273438 L 950 272.726563 "/>
<path style="fill:none;stroke-width:0.818182;stroke-linecap:round;stroke-linejoin:miter;stroke:rgb(87.45098%,87.45098%,87.45098%);stroke-opacity:1;stroke-dasharray:4.963636,14.945455;stroke-miterlimit:10;" d="M 772.726563 471.816406 L 782.179688 471.507813 L 791.59375 470.582031 L 800.925781 469.039063 L 810.136719 466.894531 L 819.191406 464.148438 L 828.042969 460.816406 L 836.65625 456.910156 L 845 452.453125 L 853.03125 447.457031 L 860.722656 441.949219 L 868.03125 435.949219 L 874.9375 429.480469 L 881.402344 422.578125 L 887.402344 415.265625 L 892.914063 407.578125 L 897.90625 399.546875 L 902.367188 391.203125 L 906.269531 382.585938 L 909.601563 373.734375 L 912.347656 364.683594 L 914.496094 355.472656 L 916.035156 346.140625 L 916.964844 336.726563 L 917.273438 327.273438 L 917.273438 272.726563 "/>
<path style="fill:none;stroke-width:0.818182;stroke-linecap:round;stroke-linejoin:miter;stroke:rgb(87.45098%,87.45098%,87.45098%);stroke-opacity:1;stroke-miterlimit:10;" d="M 772.726563 455.453125 L 781.109375 455.179688 L 789.457031 454.359375 L 797.734375 452.992188 L 805.902344 451.085938 L 813.929688 448.652344 L 821.78125 445.699219 L 829.421875 442.234375 L 836.816406 438.28125 L 843.941406 433.851563 L 850.757813 428.964844 L 857.242188 423.644531 L 863.367188 417.910156 L 869.097656 411.789063 L 874.421875 405.304688 L 879.304688 398.488281 L 883.734375 391.363281 L 887.691406 383.964844 L 891.152344 376.324219 L 894.105469 368.476563 L 896.542969 360.449219 L 898.445313 352.28125 L 899.8125 344.003906 L 900.632813 335.65625 L 900.910156 327.273438 L 900.910156 272.726563 "/>
<path style="fill:none;stroke-width:0.818182;stroke-linecap:round;stroke-linejoin:miter;stroke:rgb(87.45098%,87.45098%,87.45098%);stroke-opacity:1;stroke-dasharray:4.963636,14.945455;stroke-miterlimit:10;" d="M 933.636719 272.726563 L 933.292969 262.203125 L 932.257813 251.722656 L 930.542969 241.335938 L 928.152344 231.082031 L 925.097656 221.003906 L 921.386719 211.148438 L 917.042969 201.558594 L 912.078125 192.273438 L 906.519531 183.332031 L 900.386719 174.773438 L 893.707031 166.632813 L 886.507813 158.949219 L 878.820313 151.75 L 870.683594 145.070313 L 862.125 138.9375 L 853.183594 133.375 L 843.894531 128.414063 L 834.304688 124.066406 L 824.449219 120.359375 L 814.375 117.300781 L 804.117188 114.910156 L 793.730469 113.195313 L 783.25 112.164063 L 772.726563 111.816406 "/>
<path style="fill:none;stroke-width:0.818182;stroke-linecap:round;stroke-linejoin:miter;stroke:rgb(87.45098%,87.45098%,87.45098%);stroke-opacity:1;stroke-miterlimit:10;" d="M 950 272.726563 L 949.621094 261.132813 L 948.484375 249.589844 L 946.59375 238.144531 L 943.960938 226.847656 L 940.59375 215.746094 L 936.507813 204.886719 L 931.71875 194.320313 L 926.25 184.089844 L 920.125 174.238281 L 913.367188 164.808594 L 906.007813 155.84375 L 898.078125 147.375 L 889.609375 139.445313 L 880.644531 132.085938 L 871.214844 125.332031 L 861.363281 119.203125 L 851.132813 113.734375 L 840.566406 108.949219 L 829.710938 104.863281 L 818.609375 101.496094 L 807.3125 98.859375 L 795.867188 96.972656 L 784.320313 95.835938 L 772.726563 95.453125 "/>
<path style="fill:none;stroke-width:0.818182;stroke-linecap:round;stroke-linejoin:miter;stroke:rgb(87.45098%,87.45098%,87.45098%);stroke-opacity:1;stroke-dasharray:4.963636,14.945455;stroke-miterlimit:10;" d="M 917.273438 272.726563 L 916.964844 263.273438 L 916.035156 253.859375 L 914.496094 244.527344 L 912.347656 235.316406 L 909.601563 226.265625 L 906.269531 217.414063 L 902.367188 208.796875 L 897.90625 200.453125 L 892.914063 192.421875 L 887.402344 184.734375 L 881.402344 177.421875 L 874.9375 170.519531 L 868.03125 164.050781 L 860.722656 158.050781 L 853.03125 152.542969 L 845 147.546875 L 836.65625 143.089844 L 828.042969 139.183594 L 819.191406 135.851563 L 810.136719 133.105469 L 800.925781 130.960938 L 791.59375 129.417969 L 782.179688 128.492188 L 772.726563 128.183594 "/>
<path style="fill:none;stroke-width:0.818182;stroke-linecap:round;stroke-linejoin:miter;stroke:rgb(87.45098%,87.45098%,87.45098%);stroke-opacity:1;stroke-miterlimit:10;" d="M 900.910156 272.726563 L 900.632813 264.34375 L 899.8125 255.996094 L 898.445313 247.71875 L 896.542969 239.550781 L 894.105469 231.523438 L 891.152344 223.675781 L 887.691406 216.035156 L 883.734375 208.636719 L 879.304688 201.511719 L 874.421875 194.695313 L 869.097656 188.210938 L 863.367188 182.089844 L 857.242188 176.355469 L 850.757813 171.035156 L 843.941406 166.148438 L 836.816406 161.71875 L 829.421875 157.765625 L 821.78125 154.300781 L 813.929688 151.347656 L 805.902344 148.914063 L 797.734375 147.007813 L 789.457031 145.640625 L 781.109375 144.820313 L 772.726563 144.546875 "/>
<path style="fill:none;stroke-width:0.818182;stroke-linecap:round;stroke-linejoin:miter;stroke:rgb(87.45098%,87.45098%,87.45098%);stroke-opacity:1;stroke-dasharray:4.963636,14.945455;stroke-miterlimit:10;" d="M 772.726563 111.816406 L 227.273438 111.816406 "/>
<path style="fill:none;stroke-width:0.818182;stroke-linecap:round;stroke-linejoin:miter;stroke:rgb(87.45098%,87.45098%,87.45098%);stroke-opacity:1;stroke-miterlimit:10;" d="M 772.726563 95.453125 L 227.273438 95.453125 "/>
<path style="fill:none;stroke-width:0.818182;stroke-linecap:round;stroke-linejoin:miter;stroke:rgb(87.45098%,87.45098%,87.45098%);stroke-opacity:1;stroke-dasharray:4.963636,14.945455;stroke-miterlimit:10;" d="M 772.726563 128.183594 L 227.273438 128.183594 "/>
<path style="fill:none;stroke-width:0.818182;stroke-linecap:round;stroke-linejoin:miter;stroke:rgb(87.45098%,87.45098%,87.45098%);stroke-opacity:1;stroke-miterlimit:10;" d="M 772.726563 144.546875 L 227.273438 144.546875 "/>
<path style="fill:none;stroke-width:0.818182;stroke-linecap:round;stroke-linejoin:miter;stroke:rgb(87.45098%,87.45098%,87.45098%);stroke-opacity:1;stroke-dasharray:4.963636,14.945455;stroke-miterlimit:10;" d="M 227.273438 111.816406 L 216.75 112.164063 L 206.269531 113.195313 L 195.882813 114.910156 L 185.625 117.300781 L 175.550781 120.359375 L 165.695313 124.066406 L 156.105469 128.414063 L 146.816406 133.375 L 137.875 138.9375 L 129.316406 145.070313 L 121.179688 151.75 L 113.492188 158.949219 L 106.292969 166.632813 L 99.613281 174.773438 L 93.480469 183.332031 L 87.921875 192.273438 L 82.957031 201.558594 L 78.613281 211.148438 L 74.902344 221.003906 L 71.847656 231.082031 L 69.457031 241.335938 L 67.742188 251.722656 L 66.707031 262.203125 L 66.363281 272.726563 L 66.363281 327.273438 "/>
<path style="fill:none;stroke-width:0.818182;stroke-linecap:round;stroke-linejoin:miter;stroke:rgb(87.45098%,87.45098%,87.45098%);stroke-opacity:1;stroke-miterlimit:10;" d="M 227.273438 95.453125 L 215.679688 95.835938 L 204.132813 96.972656 L 192.6875 98.859375 L 181.390625 101.496094 L 170.289063 104.863281 L 159.433594 108.949219 L 148.867188 113.734375 L 138.636719 119.203125 L 128.785156 125.332031 L 119.355469 132.085938 L 110.390625 139.445313 L 101.921875 147.375 L 93.992188 155.84375 L 86.632813 164.808594 L 79.875 174.238281 L 73.75 184.089844 L 68.28125 194.320313 L 63.492188 204.886719 L 59.40625 215.746094 L 56.039063 226.847656 L 53.40625 238.144531 L 51.515625 249.589844 L 50.378906 261.132813 L 50 272.726563 L 50 327.273438 "/>
<path style="fill:none;stroke-width:0.818182;stroke-linecap:round;stroke-linejoin:miter;stroke:rgb(87.45098%,87.45098%,87.45098%);stroke-opacity:1;stroke-dasharray:4.963636,14.945455;stroke-miterlimit:10;" d="M 227.273438 128.183594 L 217.820313 128.492188 L 208.40625 129.417969 L 199.074219 130.960938 L 189.863281 133.105469 L 180.808594 135.851563 L 171.957031 139.183594 L 163.34375 143.089844 L 155 147.546875 L 146.96875 152.542969 L 139.277344 158.050781 L 131.96875 164.050781 L 125.0625 170.519531 L 118.597656 177.421875 L 112.597656 184.734375 L 107.085938 192.421875 L 102.09375 200.453125 L 97.632813 208.796875 L 93.730469 217.414063 L 90.398438 226.265625 L 87.652344 235.316406 L 85.503906 244.527344 L 83.964844 253.859375 L 83.035156 263.273438 L 82.726563 272.726563 L 82.726563 327.273438 "/>
<path style="fill:none;stroke-width:0.818182;stroke-linecap:round;stroke-linejoin:miter;stroke:rgb(87.45098%,87.45098%,87.45098%);stroke-opacity:1;stroke-miterlimit:10;" d="M 227.273438 144.546875 L 218.890625 144.820313 L 210.542969 145.640625 L 202.265625 147.007813 L 194.097656 148.914063 L 186.070313 151.347656 L 178.21875 154.300781 L 170.578125 157.765625 L 163.183594 161.71875 L 156.058594 166.148438 L 149.242188 171.035156 L 142.757813 176.355469 L 136.632813 182.089844 L 130.902344 188.210938 L 125.578125 194.695313 L 120.695313 201.511719 L 116.265625 208.636719 L 112.308594 216.035156 L 108.847656 223.675781 L 105.894531 231.523438 L 103.457031 239.550781 L 101.554688 247.71875 L 100.1875 255.996094 L 99.367188 264.34375 L 99.089844 272.726563 L 99.089844 327.273438 "/>
<path style="fill:none;stroke-width:0.818182;stroke-linecap:round;stroke-linejoin:miter;stroke:rgb(87.45098%,87.45098%,87.45098%);stroke-opacity:1;stroke-dasharray:4.963636,14.945455;stroke-miterlimit:10;" d="M 66.363281 327.273438 L 66.707031 337.796875 L 67.742188 348.277344 L 69.457031 358.664063 L 71.847656 368.917969 L 74.902344 378.996094 L 78.613281 388.851563 L 82.957031 398.441406 L 87.921875 407.726563 L 93.480469 416.667969 L 99.613281 425.226563 L 106.292969 433.367188 L 113.492188 441.050781 L 121.179688 448.25 L 129.316406 454.929688 L 137.875 461.0625 L 146.816406 466.625 L 156.105469 471.585938 L 165.695313 475.933594 L 175.550781 479.640625 L 185.625 482.699219 L 195.882813 485.089844 L 206.269531 486.804688 L 216.75 487.835938 L 227.273438 488.183594 "/>
<path style="fill:none;stroke-width:0.818182;stroke-linecap:round;stroke-linejoin:miter;stroke:rgb(87.45098%,87.45098%,87.45098%);stroke-opacity:1;stroke-miterlimit:10;" d="M 50 327.273438 L 50.378906 338.867188 L 51.515625 350.410156 L 53.40625 361.855469 L 56.039063 373.152344 L 59.40625 384.253906 L 63.492188 395.113281 L 68.28125 405.679688 L 73.75 415.910156 L 79.875 425.761719 L 86.632813 435.191406 L 93.992188 444.15625 L 101.921875 452.625 L 110.390625 460.554688 L 119.355469 467.914063 L 128.785156 474.667969 L 138.636719 480.796875 L 148.867188 486.265625 L 159.433594 491.050781 L 170.289063 495.136719 L 181.390625 498.503906 L 192.6875 501.140625 L 204.132813 503.027344 L 215.679688 504.164063 L 227.273438 504.546875 "/>
<path style="fill:none;stroke-width:0.818182;stroke-linecap:round;stroke-linejoin:miter;stroke:rgb(87.45098%,87.45098%,87.45098%);stroke-opacity:1;stroke-dasharray:4.963636,14.945455;stroke-miterlimit:10;" d="M 82.726563 327.273438 L 83.035156 336.726563 L 83.964844 346.140625 L 85.503906 355.472656 L 87.652344 364.683594 L 90.398438 373.734375 L 93.730469 382.585938 L 97.632813 391.203125 L 102.09375 399.546875 L 107.085938 407.578125 L 112.597656 415.265625 L 118.597656 422.578125 L 125.0625 429.480469 L 131.96875 435.949219 L 139.277344 441.949219 L 146.96875 447.457031 L 155 452.453125 L 163.34375 456.910156 L 171.957031 460.816406 L 180.808594 464.148438 L 189.863281 466.894531 L 199.074219 469.039063 L 208.40625 470.582031 L 217.820313 471.507813 L 227.273438 471.816406 "/>
<path style="fill:none;stroke-width:0.818182;stroke-linecap:round;stroke-linejoin:miter;stroke:rgb(87.45098%,87.45098%,87.45098%);stroke-opacity:1;stroke-miterlimit:10;" d="M 99.089844 327.273438 L 99.367188 335.65625 L 100.1875 344.003906 L 101.554688 352.28125 L 103.457031 360.449219 L 105.894531 368.476563 L 108.847656 376.324219 L 112.308594 383.964844 L 116.265625 391.363281 L 120.695313 398.488281 L 125.578125 405.304688 L 130.902344 411.789063 L 136.632813 417.910156 L 142.757813 423.644531 L 149.242188 428.964844 L 156.058594 433.851563 L 163.183594 438.28125 L 170.578125 442.234375 L 178.21875 445.699219 L 186.070313 448.652344 L 194.097656 451.085938 L 202.265625 452.992188 L 210.542969 454.359375 L 218.890625 455.179688 L 227.273438 455.453125 "/>
<path style="fill:none;stroke-width:0.818182;stroke-linecap:round;stroke-linejoin:miter;stroke:rgb(87.45098%,87.45098%,87.45098%);stroke-opacity:1;stroke-dasharray:4.963636,14.945455;stroke-miterlimit:10;" d="M 227.273438 488.183594 L 772.726563 488.183594 "/>
<path style="fill:none;stroke-width:0.818182;stroke-linecap:round;stroke-linejoin:miter;stroke:rgb(87.45098%,87.45098%,87.45098%);stroke-opacity:1;stroke-miterlimit:10;" d="M 227.273438 504.546875 L 772.726563 504.546875 "/>
<path style="fill:none;stroke-width:0.818182;stroke-linecap:round;stroke-linejoin:miter;stroke:rgb(87.45098%,87.45098%,87.45098%);stroke-opacity:1;stroke-dasharray:4.963636,14.945455;stroke-miterlimit:10;" d="M 227.273438 471.816406 L 772.726563 471.816406 "/>
<path style="fill:none;stroke-width:0.818182;stroke-linecap:round;stroke-linejoin:miter;stroke:rgb(87.45098%,87.45098%,87.45098%);stroke-opacity:1;stroke-miterlimit:10;" d="M 227.273438 455.453125 L 772.726563 455.453125 "/>
</g>
</svg>
